<svg width="32" height="32" viewBox="0 0 32 32" fill="none" xmlns="http://www.w3.org/2000/svg">
<ellipse cx="15.998" cy="17.334" rx="4" ry="4" stroke="#007BFF" stroke-width="2.125"/>
<path d="M13.3315 26.6665H18.6648C22.4101 26.6665 24.2827 26.6665 25.6279 25.7677C26.2102 25.3786 26.7102 24.8786 27.0993 24.2962C27.9982 22.951 27.9982 21.0784 27.9982 17.3332C27.9982 13.588 27.998 11.7156 27.0992 10.3704C26.71 9.7881 26.21 9.28809 25.6277 8.89898C24.2825 8.00015 22.4099 8.00015 18.6646 8.00015H13.3313C9.58608 8.00015 7.71347 8.00015 6.36827 8.89898C5.78593 9.28809 5.28592 9.7881 4.89681 10.3704C3.99818 11.7153 3.99818 13.5871 3.99818 17.3307L3.99818 17.3332C3.99818 21.0784 3.99818 22.951 4.89701 24.2962C5.28612 24.8786 5.78612 25.3786 6.36847 25.7677C7.71366 26.6665 9.58628 26.6665 13.3315 26.6665Z" stroke="#007BFF" stroke-width="2.125"/>
<path d="M23.9992 13.334H23.3325" stroke="#007BFF" stroke-width="2.125" stroke-linecap="round"/>
<path d="M19.3322 4.66602H12.6655" stroke="#007BFF" stroke-width="2.125" stroke-linecap="round"/>
</svg>
