<svg width="32" height="32" viewBox="0 0 32 32" fill="none" xmlns="http://www.w3.org/2000/svg">
<path d="M2.6665 16.0013C2.6665 9.71591 2.6665 6.57321 4.61913 4.62059C6.57175 2.66797 9.71444 2.66797 15.9998 2.66797C22.2852 2.66797 25.4279 2.66797 27.3805 4.62059C29.3332 6.57321 29.3332 9.71591 29.3332 16.0013C29.3332 22.2867 29.3332 25.4294 27.3805 27.382C25.4279 29.3346 22.2852 29.3346 15.9998 29.3346C9.71444 29.3346 6.57175 29.3346 4.61913 27.382C2.6665 25.4294 2.6665 22.2867 2.6665 16.0013Z" stroke="#007BFF" stroke-width="2.125"/>
<ellipse cx="21.3332" cy="10.6667" rx="2.66667" ry="2.66667" stroke="#007BFF" stroke-width="2.125"/>
<path d="M2.6665 16.6675L5.00195 14.624C6.21698 13.5609 8.0482 13.6218 9.18982 14.7634L14.9095 20.4831C15.8258 21.3994 17.2682 21.5243 18.3284 20.7792L18.726 20.4998C20.2516 19.4276 22.3157 19.5518 23.7018 20.7993L27.9998 24.6675" stroke="#007BFF" stroke-width="2.125" stroke-linecap="round"/>
</svg>
